<svg xmlns="http://www.w3.org/2000/svg" viewBox="0 0 100 100">
  <defs>
    <linearGradient id="grad1" x1="0%" y1="0%" x2="100%" y2="100%">
      <stop offset="0%" style="stop-color:#3b82f6;stop-opacity:1" />
      <stop offset="100%" style="stop-color:#8b5cf6;stop-opacity:1" />
    </linearGradient>
  </defs>
  
  <!-- Background circle -->
  <circle cx="50" cy="50" r="48" fill="url(#grad1)" stroke="#1e293b" stroke-width="2"/>
  
  <!-- Lightbulb icon -->
  <path d="M 50 20 Q 40 20 35 25 Q 30 30 30 40 Q 30 45 32 50 L 35 60 L 40 70 L 45 75 L 50 78 L 55 75 L 60 70 L 65 60 L 68 50 Q 70 45 70 40 Q 70 30 65 25 Q 60 20 50 20 Z" 
        fill="#fbbf24" stroke="#f59e0b" stroke-width="1.5"/>
  
  <!-- Lightbulb base -->
  <rect x="45" y="78" width="10" height="8" fill="#92400e" rx="1"/>
  
  <!-- Sparkle/idea symbols -->
  <circle cx="25" cy="30" r="3" fill="#fbbf24" opacity="0.9"/>
  <circle cx="75" cy="35" r="2.5" fill="#fbbf24" opacity="0.8"/>
  <circle cx="20" cy="60" r="2" fill="#fbbf24" opacity="0.7"/>
  <circle cx="80" cy="65" r="2.5" fill="#fbbf24" opacity="0.8"/>
  
  <!-- Small stars -->
  <path d="M 30 25 L 31 28 L 34 28 L 31.5 30 L 32.5 33 L 30 31 L 27.5 33 L 28.5 30 L 26 28 L 29 28 Z" fill="#fff" opacity="0.9"/>
  <path d="M 70 30 L 70.5 32 L 72.5 32 L 71 33.5 L 71.5 35.5 L 70 34 L 68.5 35.5 L 69 33.5 L 67.5 32 L 69.5 32 Z" fill="#fff" opacity="0.8"/>
</svg>



